#!OML:ASF F:\VICON\USERDATA\INSTALL\rory3\rory3.ASF
:FULLY-SPECIFIED
:DEGREES
154
root 0.8647367715636017 18.11116713697714 41.002394556738935 3.441999481973971 -2.747779158252964 -1.115522249844713
lfemur 7.381121227188665 -2.0917568388157557 -27.051508567172284
ltibia 35.621119928010245
lfoot 12.266497591358505 -11.187554053043018
ltoes -28.199763637978506
rfemur -45.38246448627191 -3.821604137705601 24.11719337338005
rtibia 66.86782383019505
rfoot 9.686416934052602 -6.465186345732586
rtoes -3.6004130357002815
lowerback nan -2.086569789281655 -0.9037068686962977
upperback -0.8397333508535709 -1.0857732461974303 1.063751378751983
thorax -7.893255059847306 -1.1078547905308471 3.216698564264266
lowerneck -19.99206376152846 -3.42367084670725 -2.443254265813859
upperneck 11.558404943546588 -3.242960330460621 3.978175537512785
head 6.879072428981179 -1.7169428875464017 1.2942740669223929
lclavicle -9.019860634250059e-16 2.8860725896684563e-15
lhumerus -35.823885506972125 -6.510856295035044 83.93539385148189
lradius 130.99190171535125
lwrist 35.80157737214334
lhand -26.112830939979368 -3.264949862932629
lfingers nan
lthumb -0.03444801041068768 25.974074069046075
rclavicle 2.5187365274559025e-15 1.979176824485088e-15
rhumerus -65.53314890244663 6.443124253497591 -94.55390467087508
rradius 110.07166919891345
rwrist -24.061067667319936
rhand -17.79145725038477 nan
rfingers nan
rthumb 8.126605827307491 13.337780210706466
155
root 0.8655904922237538 18.172248603998003 41.15295402539378 3.7360192966111287 -3.540774511535341 -1.790752094142856
lfemur 8.812537503565334 -2.2786715570931904 -26.520909452642808
ltibia 34.121325200925185
lfoot 18.282945346665105 -11.871203650127807
ltoes -25.44557639985667
rfemur -45.50511348453122 -3.017829887755202 25.176517816294734
rtibia 62.14704043714178
rfoot 9.676611139998606 -6.252884922601502
rtoes -5.155997325711137
lowerback nan -2.0003602070596913 -0.5557930558984068
upperback -1.0002375599224977 -0.898814258775775 1.1846825597920434
thorax -8.154953979249239 -0.9856578097811627 3.2133567303463755
lowerneck -19.840372308699802 -3.4473737090304803 -2.4697321872830162
upperneck 11.839977346599708 -3.262725878153297 4.027503461498641
head 6.941770895107712 -1.714025607654598 1.304865523775635
lclavicle -1.0210311712631555e-14 -2.1226844150320356e-15
lhumerus -36.466658748711964 -6.7769071353411015 84.04083161814218
lradius 130.79886667802143
lwrist 35.163577301998416
lhand -26.717240560973174 -4.081045415362614
lfingers nan
lthumb -0.6189671769723268 25.154472225493567
rclavicle -6.772548952403454e-15 -3.0115887983016995e-15
rhumerus -65.90498317359774 5.632636150594663 -93.73915984093242
rradius 110.35243955071228
rwrist -23.988792540019958
rhand -17.478855422897897 nan
rfingers nan
rthumb 8.402309650391917 13.06484491985761
156
root 0.873076831031851 18.22397711394104 41.0756012784781 3.5741696707729975 -5.153773763360796 -1.9974299812234082
lfemur 10.688478344105448 -1.4348839922104857 -26.620205478102758
ltibia 32.35475973292168
lfoot 23.136623128098464 -12.519394581518679
ltoes -21.500170328473516
rfemur -44.78643512483767 -1.8463789019654198 25.50634739591346
rtibia 57.34769753853941
rfoot 9.433376592788512 -5.249159204921237
rtoes -6.429588447069136
lowerback nan -1.7067289679689286 -0.5863328308284483
upperback -1.007791664441183 -0.5043278783820668 1.23228413840883
thorax -8.137799888147562 -0.7610825406701464 3.1948001005636635
lowerneck -19.669948826420644 -3.4191700369592644 -2.5163036656163396
upperneck 11.967472172147328 -3.1839883452252913 3.937523239552953
head 6.951430217508341 -1.6819707630270648 1.2965896841317555
lclavicle -1.9319672850473923e-14 -9.26608471418981e-16
lhumerus -37.12944017054605 -7.033309201470818 84.21014166448616
lradius 130.57101440806503
lwrist 34.399645011295334
lhand -26.009034627828072 -2.6554411485013345
lfingers nan
lthumb 0.15998040104458222 26.651306777164443
rclavicle -1.5694540168923027e-14 -1.739418263067579e-15
rhumerus -66.41927657777302 4.960629382077934 -92.93366759795141
rradius 110.60426650297535
rwrist -23.629561612146986
rhand -17.560959578363896 nan
rfingers nan
rthumb 8.29926302806868 12.922697063221799
157
root 0.9024439576848455 18.26443246199565 41.3791436655181 3.5935461681086003 -4.7328949784025935 -1.8159785109582904
lfemur 12.251040689694054 -1.9290685272868804 -26.755745425447024
ltibia 30.532962192964625
lfoot 26.93966903598113 -14.176347190516093
ltoes -18.128415598157588
rfemur -43.86096790755917 -2.307871779629887 25.523115175451213
rtibia 52.37397035388257
rfoot 8.730654687273288 -4.335154851387663
rtoes -6.888219775541252
lowerback nan -1.9051965058329539 -0.6307421780453
upperback -1.155165168597153 -0.7299018472601582 1.215778918260433
thorax -8.068638935181449 -0.8849996354727524 3.269561495644823
lowerneck -20.03424011922103 -3.551948243361551 -2.6920220453584833
upperneck 12.71837882406549 -3.324543405577725 4.181850752647561
head 7.279779989110695 -1.7227080752227002 1.3682423624329654
lclavicle 2.2470663892095164e-14 1.8208721923146957e-15
lhumerus -37.67747808416742 -7.202831463377975 83.99075597719369
lradius 130.1321086217817
lwrist 34.81911972089043
lhand -24.984496795629607 -3.6460575697428466
lfingers nan
lthumb 1.1442378238447772 25.65361275774824
rclavicle 2.6242088909859906e-14 8.757911856518229e-16
rhumerus -67.14633996137137 4.398885447156303 -92.43538521590976
rradius 110.83776556898661
rwrist -22.18851307889039
rhand -18.314645671212354 nan
rfingers nan
rthumb 7.559087579448263 12.779718288485551
158
root 0.959422759871881 18.282538475402486 42.444577128180555 3.292426157459583 -4.269313030910972 -1.524704249136776
lfemur 13.856296542944108 -2.6177596395746603 -26.994782978951577
ltibia 29.011347170936432
lfoot 29.96167105551394 -15.076376009765577
ltoes -15.950521386567551
rfemur -42.36297754165251 -3.1887011550649498 25.537624793324593
rtibia 47.22686911550139
rfoot 7.9540405421644245 -2.6077766061281227
rtoes -8.11745728297526
lowerback nan -2.071319276059913 -0.26033983754866474
upperback -1.093734387243685 -0.9083217187349961 1.0856576787159569
thorax -7.8477996304066435 -0.995862445761014 3.1878117541022517
lowerneck -19.605118356466342 -3.383474809844321 -2.659021640745599
upperneck 12.552826149305174 -3.084053044257257 4.115069453869935
head 7.139162735370153 -1.610192587639642 1.369267691991735
lclavicle 2.016023292596556e-14 -8.558822182295165e-15
lhumerus -38.04037575332134 -7.153525204436199 83.34037279797005
lradius 129.57279179063678
lwrist 36.82953041126705
lhand -20.518779427255012 -6.0914361527801635
lfingers nan
lthumb 5.447492625857347 23.188165285684555
rclavicle 2.38886205517383e-14 -9.494396393349232e-15
rhumerus -67.74609607024493 3.6593643394468565 -91.8751369090107
rradius 111.67908966282381
rwrist -20.539718915482734
rhand -18.738169865300566 nan
rfingers nan
rthumb 7.153773807090953 12.293279036529464
